<?xml version="1.0" standalone="no"?>
<!DOCTYPE svg PUBLIC "-//W3C//DTD SVG 20010904//EN"
 "http://www.w3.org/TR/2001/REC-SVG-20010904/DTD/svg10.dtd">
<svg version="1.0" xmlns="http://www.w3.org/2000/svg"
 width="1024.000000pt" height="1024.000000pt" viewBox="0 0 1024.000000 1024.000000"
 preserveAspectRatio="xMidYMid meet">
<metadata>
Created by potrace 1.11, written by Peter Selinger 2001-2013
</metadata>
<g transform="translate(0.000000,1024.000000) scale(0.100000,-0.100000)"
fill="#000000" stroke="none">
<path d="M1367 9904 c-1 -1 -42 -4 -92 -7 -106 -7 -242 -42 -339 -86 -243
-111 -453 -342 -535 -587 -31 -91 -37 -118 -50 -212 -10 -67 -7 -7776 3 -7817
42 -183 75 -264 153 -382 170 -259 438 -425 738 -459 77 -8 7683 -9 7750 0
281 36 507 163 688 388 105 131 176 295 201 466 10 69 12 866 11 3952 -1 2126
-5 3876 -9 3890 -3 14 -9 40 -12 59 -8 46 -60 194 -84 235 -10 18 -24 44 -32
57 -61 108 -210 263 -326 339 -128 84 -296 142 -449 156 -53 5 -7610 13 -7616
8z m4063 -450 c118 -15 166 -22 195 -28 470 -97 874 -316 1218 -660 107 -106
220 -237 278 -321 19 -27 37 -52 40 -55 17 -14 138 -227 180 -315 108 -230
193 -544 216 -799 9 -100 8 -440 -1 -521 -4 -33 -11 -85 -16 -115 -5 -30 -12
-71 -15 -90 -44 -266 -175 -597 -333 -840 -203 -314 -515 -617 -827 -802 -174
-104 -478 -229 -616 -253 -16 -3 -39 -9 -53 -15 -15 -5 -26 -8 -26 -5 0 2 -15
-1 -32 -6 -18 -5 -55 -12 -83 -15 -27 -4 -53 -8 -56 -10 -3 -2 -48 -7 -100
-11 -175 -14 -539 -8 -649 11 -14 2 -43 7 -65 10 -205 30 -432 104 -650 211
-291 142 -551 346 -780 610 -33 38 -70 81 -82 95 -13 14 -23 28 -23 31 0 4
-15 25 -32 47 -56 67 -140 210 -212 358 -66 134 -150 376 -172 494 -2 14 -7
31 -9 38 -8 22 -34 194 -42 277 -10 103 -10 408 1 505 12 118 15 139 40 265
73 374 265 764 518 1058 175 203 429 420 628 537 126 75 407 203 471 215 9 2
47 12 85 24 108 32 249 60 374 74 151 18 497 18 630 1z m-1700 -5158 c30 -4
62 -9 70 -11 8 -2 31 -7 50 -10 56 -10 282 -66 320 -80 148 -54 344 -100 600
-139 149 -23 547 -24 690 -2 14 2 48 8 75 12 28 4 55 8 60 10 6 1 30 5 55 9
60 9 298 68 385 95 63 20 193 56 238 66 9 2 26 6 37 9 51 13 70 17 150 32 134
25 414 19 598 -13 72 -13 286 -70 362 -96 104 -37 332 -149 418 -206 35 -23
67 -42 72 -42 5 0 10 -4 12 -8 2 -4 48 -42 103 -84 342 -261 641 -663 769
-1033 48 -139 72 -228 100 -375 25 -131 30 -235 30 -600 0 -331 -2 -361 -22
-443 -39 -156 -117 -285 -243 -402 -109 -100 -211 -155 -359 -191 -72 -18
-186 -19 -3185 -19 l-3110 0 -85 23 c-73 20 -235 92 -250 111 -3 3 -30 26 -60
51 -157 129 -246 280 -285 487 -13 68 -13 744 -1 843 30 234 116 532 210 724
65 134 207 352 281 432 5 6 29 33 52 60 298 350 694 607 1103 718 52 14 109
28 125 31 117 23 191 34 265 40 47 4 86 8 87 9 5 4 238 -2 283 -8z"/>
<path d="M4907 8643 c-269 -32 -510 -125 -732 -282 -99 -69 -291 -259 -372
-366 -114 -151 -185 -291 -243 -481 -27 -88 -32 -107 -45 -184 -4 -19 -9 -46
-12 -60 -13 -57 -12 -407 2 -490 61 -381 202 -654 484 -930 125 -123 256 -216
406 -290 130 -64 167 -78 310 -116 186 -50 480 -62 695 -28 160 25 342 87 497
169 267 141 553 435 690 710 28 55 92 227 107 285 44 172 51 240 51 460 -1
161 -5 215 -23 308 -45 225 -135 436 -259 612 -84 117 -290 325 -400 403 -93
66 -257 154 -355 191 -68 26 -236 71 -298 80 -158 23 -357 26 -503 9z"/>
<path d="M3448 3484 c-2 -1 -28 -5 -58 -8 -224 -21 -500 -140 -695 -299 -184
-150 -362 -373 -438 -547 -40 -92 -76 -201 -98 -300 -19 -83 -22 -135 -26
-417 l-5 -323 2992 0 2992 0 -5 323 c-4 279 -7 334 -25 412 -47 205 -119 370
-230 524 -65 92 -242 280 -311 331 -18 14 -38 30 -45 35 -30 27 -153 100 -233
140 -103 50 -236 92 -383 120 -103 20 -271 15 -360 -10 -3 -1 -18 -5 -35 -9
-16 -5 -142 -39 -280 -76 -137 -37 -277 -73 -310 -79 -33 -7 -67 -14 -75 -15
-16 -4 -109 -19 -125 -21 -80 -11 -134 -18 -150 -21 -158 -30 -774 -23 -935
11 -14 3 -43 7 -65 11 -83 11 -281 51 -365 73 -19 5 -134 37 -255 70 -121 34
-246 66 -277 71 -50 9 -192 12 -200 4z"/>
</g>
</svg>
